<svg xmlns="http://www.w3.org/2000/svg" xmlns:xlink="http://www.w3.org/1999/xlink" id="Layer_1" x="0" y="0" version="1.1" viewBox="0 0 100 100" xml:space="preserve" style="enable-background:new 0 0 100 100"><g id="Solid"><g><path d="M50,13.6c-20,0-36.3,16.3-36.3,36.3c0,20,16.3,36.3,36.3,36.3C70,86.3,86.3,70,86.3,50 C86.3,29.9,70,13.6,50,13.6z M50,79c-16,0-29.1-13-29.1-29.1c0-16,13-29.1,29.1-29.1C66,20.9,79,33.9,79,50C79,66,66,79,50,79z" class="st0"/><polygon points="53.6 31.8 46.3 31.8 46.3 46.3 31.8 46.3 31.8 53.6 46.3 53.6 46.3 68.1 53.6 68.1 53.6 53.6 68.1 53.6 68.1 46.3 53.6 46.3" class="st0"/></g></g></svg>