<svg xmlns="http://www.w3.org/2000/svg" xmlns:svg="http://www.w3.org/2000/svg" id="Layer_1" x="0" y="0" version="1.1" viewBox="0 0 100 100" xml:space="preserve" style="enable-background:new 0 0 100 100"><path id="polygon1" d="m 20.9,15.886139 v 68.314007 a 3.9932906,3.9932906 27.089628 0 0 6.330369,3.237968 L 72.769631,54.569091 a 5.6291372,5.6291372 89.972056 0 0 -0.0045,-9.132005 L 27.234823,12.641994 A 3.9980956,3.9980956 152.88243 0 0 20.9,15.886139 Z" transform="matrix(-0.92371707,0,0,0.92371707,89.638717,3.8141467)"/><path id="path1-8-2-8-5-11-2" d="m 51.4,27.9 c 1.9,0 17.887156,3.858327 19.087156,5.458327 L 85.174865,64.058364 C 86.541094,67.313949 86.4,72.3 83.6,74.5 80.8,76.7 76.58445,76.407138 74.38445,73.607138 L 46.3,38.4 c -2.074631,-2.600791 -1.920843,-6.770066 1,-9.1 1.546365,-1.233524 2.7,-1.4 4.1,-1.4 z" transform="matrix(-0.54547795,-0.43513175,0.43512361,-0.54548817,108.54678,136.5645)"/><path id="path1-8-2-8-5-11-3-5" d="m 51.4,27.9 c 1.9,0 17.887156,3.858327 19.087156,5.458327 L 85.174865,64.058364 C 86.541094,67.313949 86.4,72.3 83.6,74.5 80.8,76.7 76.58445,76.407138 74.38445,73.607138 L 46.3,38.4 c -2.074631,-2.600791 -1.920843,-6.770066 1,-9.1 1.546365,-1.233524 2.7,-1.4 4.1,-1.4 z" transform="matrix(-0.43513171,-0.54547798,-0.54548811,0.43512361,136.56452,108.54676)"/></svg>