<svg xmlns="http://www.w3.org/2000/svg" xmlns:xlink="http://www.w3.org/1999/xlink" id="Layer_1" x="0" y="0" version="1.1" viewBox="0 0 100 100" xml:space="preserve" style="enable-background:new 0 0 100 100"><g><g id="reply"><path d="M68.8,15.7l3.4-8.8l-21.4,9.6l9.6,21.4l3.5-9.1c11.1,4.2,17.4,10.7,20,20.6C85.9,37.4,83.5,23.8,68.8,15.7z"/></g></g><path d="M52,91.9H17.5c-4.9,0-8.7-3.8-8.7-8.7V48.6c0-4.9,3.8-8.7,8.7-8.7h34.4c4.9,0,8.7,3.8,8.7,8.7v34.4	C60.7,88,56.9,91.9,52,91.9z M19.3,81.3h30.9V50.4H19.3V81.3z"/></svg>