<svg xmlns="http://www.w3.org/2000/svg" xmlns:xlink="http://www.w3.org/1999/xlink" id="Layer_1" x="0" y="0" version="1.1" viewBox="0 0 100 100" xml:space="preserve" style="enable-background:new 0 0 100 100"><path d="M50.5,77.3C26.7,77.3,8.1,52.1,7.3,51L6,49.2l1.3-1.8C8.1,46.3,26.7,21,50.5,21s42.4,25.3,43.2,26.3l1.3,1.8L93.7,51	C92.9,52.1,74.3,77.3,50.5,77.3z M13.8,49.2c4.6,5.6,19.5,21.9,36.7,21.9s32.1-16.4,36.7-21.9c-4.6-5.6-19.5-21.9-36.7-21.9	C33.3,27.2,18.4,43.6,13.8,49.2z"/><circle cx="50.5" cy="49.2" r="17.3"/></svg>